<svg xmlns="http://www.w3.org/2000/svg" viewBox="0 0 80.53 95.14"><defs><style>.cls-1,.cls-2{fill:#006934;}.cls-2,.cls-3,.cls-4{stroke:#231815;stroke-miterlimit:10;stroke-width:3.18px;}.cls-2{stroke-linecap:round;}.cls-3{fill:#ebe282;}.cls-4{fill:#8a6139;}.cls-5{fill:#231815;}</style></defs><g id="레이어_2" data-name="레이어 2"><g id="레이어_1-2" data-name="레이어 1"><path class="cls-1" d="M36.72,6.7a2.17,2.17,0,0,1,0-.26c0-.09,0-.18,0-.27L37,2.69l0-.35c0-.12,0-.24,0-.36a1.37,1.37,0,0,0,0-.16c0-.06,0-.11-.06-.12a.16.16,0,0,0-.12,0h-.14a.39.39,0,0,0-.15,0,.34.34,0,0,1-.14,0l-.52,0c-.12,0-.25,0-.37,0l-.37,0a.85.85,0,0,1-.16,0l-.16,0-.25,0a.44.44,0,0,1-.24-.11.54.54,0,0,1-.19-.28,1.37,1.37,0,0,1,0-.35.9.9,0,0,1,.11-.41.44.44,0,0,1,.16-.17.34.34,0,0,1,.16-.08l.19,0a2,2,0,0,1,.49,0l.49,0,1.9.14.3.06a1.23,1.23,0,0,1,.29.09l.16.1a.86.86,0,0,1,.13.14.68.68,0,0,1,.09.32c0,.1,0,.22,0,.34s0,.41,0,.61,0,.4,0,.61L38.28,6a1.33,1.33,0,0,0,0,.17c0,.11,0,.23,0,.37l0,.45c0,.16,0,.3,0,.41s0,.15,0,.23a.85.85,0,0,1-.09.22.7.7,0,0,1-.15.19.62.62,0,0,1-.24.13,1,1,0,0,1-.38.05A.9.9,0,0,1,37,8.17a.38.38,0,0,1-.18-.2,1.71,1.71,0,0,1-.12-.79Zm4.89-3.21.32,0,.31,0,.12,0,.13,0a.67.67,0,0,1,.34.2A.5.5,0,0,1,43,4.2a2.86,2.86,0,0,1-.06.35.43.43,0,0,1-.19.29.5.5,0,0,1-.14.08l-.15,0a2.19,2.19,0,0,1-.43,0l-.43,0s0,0,0,.06,0,.19,0,.31l0,.37c0,.13,0,.25,0,.37s0,.23,0,.33c0,.38,0,.75-.08,1.11v.16c0,.09,0,.19,0,.31s0,.22-.05.33a1.12,1.12,0,0,1-.1.31A.66.66,0,0,1,41,8.8a.42.42,0,0,1-.36.13h0a.66.66,0,0,1-.41-.19A.91.91,0,0,1,40,8.36a1.62,1.62,0,0,1-.07-.44c0-.15,0-.28,0-.4L40.36,1a.58.58,0,0,1,0-.1.89.89,0,0,1,0-.22,1.34,1.34,0,0,1,.09-.26.49.49,0,0,1,.16-.21.38.38,0,0,1,.23-.1.86.86,0,0,1,.27,0,.52.52,0,0,1,.39.19.56.56,0,0,1,.16.34c0,.11,0,.23,0,.36a.45.45,0,0,1,0,.13v.38c0,.14,0,.27,0,.4a.53.53,0,0,1,0,.14v.17c0,.08,0,.19,0,.35s0,.37,0,.66Z"/><path class="cls-1" d="M48.51,10.83a2.91,2.91,0,0,1-.43-.11l-.79-.23-1-.3-1-.3-.77-.24-.41-.12a3.83,3.83,0,0,1-.43-.17.86.86,0,0,1-.36-.29.81.81,0,0,1-.12-.29,1.63,1.63,0,0,1,0-.31c0-.1,0-.18,0-.26a.31.31,0,0,1,0-.12l.25-.84.09-.31q0-.15.09-.27l.07-.21a.42.42,0,0,0,0-.09A.91.91,0,0,1,44,6.11.41.41,0,0,1,44.24,6a.37.37,0,0,1,.18,0l.18,0a1,1,0,0,1,.34.16.36.36,0,0,1,.14.35L45,6.91c0,.11,0,.17,0,.17l.17.06,4.26,1.29.11-.38a.77.77,0,0,1,.19-.29A.35.35,0,0,1,50,7.68a1.63,1.63,0,0,1,.37.09.51.51,0,0,1,.3.21.31.31,0,0,1,0,.26c0,.09,0,.18-.08.26q-.16.48-.3,1a7.66,7.66,0,0,1-.33,1,1,1,0,0,1-.13.23,1.72,1.72,0,0,1-.19.17.41.41,0,0,1-.28.11,1.71,1.71,0,0,1-.32,0l-.32-.08Zm-.24-4.78a.39.39,0,0,1-.12.19,1,1,0,0,1-.2.15.88.88,0,0,1-.23.07.55.55,0,0,1-.22,0A1.69,1.69,0,0,1,47,6.35l-.44-.15-1.15-.36-1.13-.38a.48.48,0,0,1-.25-.19A.73.73,0,0,1,44,5a.81.81,0,0,1,0-.31,2.21,2.21,0,0,1,.07-.3l.14-.5c0-.18.11-.37.16-.56s.11-.38.17-.56.11-.35.16-.5L44.75,2a2.81,2.81,0,0,1,.1-.31c0-.11.09-.21.13-.3a.92.92,0,0,1,.17-.24A.61.61,0,0,1,45.43,1a.87.87,0,0,1,.32,0,.68.68,0,0,1,.27.13.43.43,0,0,1,.17.26,1.33,1.33,0,0,1,0,.71l-.22.7,1.35.41.14.05.37.11a3.15,3.15,0,0,0,.13-.41c0-.12.06-.25.1-.38a2.2,2.2,0,0,1,.18-.39.53.53,0,0,1,.32-.26.56.56,0,0,1,.34,0,.52.52,0,0,1,.29.18.49.49,0,0,1,.1.3,1.37,1.37,0,0,1,0,.35,4,4,0,0,1-.09.42ZM45.05,8.13a.81.81,0,0,0-.19,0,.32.32,0,0,0-.17,0,.18.18,0,0,0-.1.12l0,.17c0,.13,0,.21.11.23a1.49,1.49,0,0,0,.25.07l.64.2.66.22.2.06.42.12.54.16.54.16.42.12.2.06.13,0a.33.33,0,0,0,.13,0,.17.17,0,0,0,.2-.13,1.16,1.16,0,0,1,.06-.15.16.16,0,0,0,0-.15.28.28,0,0,0-.15-.15l-.2-.06-.27-.08L47.77,9,47,8.72l-.82-.25-.88-.27Zm2.2-3a.14.14,0,0,0,0-.07.16.16,0,0,1,0-.08,1.43,1.43,0,0,0,.1-.25q0-.12.06-.27l0-.18L46.45,4l-.31-.11a1.14,1.14,0,0,0-.26-.09l-.25,0a1.75,1.75,0,0,0-.11.35c0,.12-.05.24-.08.36a1.17,1.17,0,0,0,0,.16s0,.06.11.1l.24.07.24.07,1.25.38Zm2.49,1.26-.18-.06-.21-.11c-.06,0-.12-.09-.18-.15a.44.44,0,0,1-.1-.19.27.27,0,0,1,0-.13.88.88,0,0,1,0-.16s0-.1.05-.15l0-.11a.42.42,0,0,1,.18-.17.79.79,0,0,1,.26-.08l.17,0,.25.07.32.09a1.42,1.42,0,0,1,0-.22l.1-.33-.24-.07-.18-.07a1.06,1.06,0,0,1-.21-.11.86.86,0,0,1-.18-.14.39.39,0,0,1-.1-.19.58.58,0,0,1,0-.32.54.54,0,0,1,.16-.26A.62.62,0,0,1,50,3.38a.69.69,0,0,1,.32,0l.1,0,.2.06.19,0s.08,0,.09,0A1.13,1.13,0,0,0,51,3.29,1.84,1.84,0,0,1,51.08,3a.84.84,0,0,1,.12-.23.46.46,0,0,1,.2-.15.52.52,0,0,1,.22,0l.23,0a.56.56,0,0,1,.4.32.63.63,0,0,1,0,.21.84.84,0,0,1,0,.27l-.09.28-.88,2.91c-.06.18-.11.32-.16.43A1.87,1.87,0,0,1,51,7.4a.35.35,0,0,1-.22.18.57.57,0,0,1-.19,0l-.2,0A.6.6,0,0,1,50,7.33a.45.45,0,0,1-.12-.25.7.7,0,0,1,0-.32c0-.12,0-.23,0-.3Z"/><path class="cls-1" d="M53.22,11.38l.15-.26.17-.3.23-.41c.08-.16.2-.37.34-.63s.32-.56.53-.92l.75-1.32.17-.31a3.18,3.18,0,0,0,.16-.32.42.42,0,0,0,0-.27.51.51,0,0,0-.2-.18L54.81,6c-.21-.12-.45-.25-.69-.4a.69.69,0,0,1-.4-.45.67.67,0,0,1,.09-.54.73.73,0,0,1,.37-.35.7.7,0,0,1,.49,0,2.26,2.26,0,0,1,.39.15,3.64,3.64,0,0,1,.39.2l1.36.78.1.06.1.06.25.18a1,1,0,0,1,.21.21.91.91,0,0,1,.11.16.61.61,0,0,1,.05.18.59.59,0,0,1,0,.31c0,.08-.08.18-.12.29s-.18.36-.28.54L56.88,8l-.39.7.93.53,1.1-1.93L58.66,7a1.46,1.46,0,0,1,.17-.24l.09-.06L59,6.65l.2-.09a.51.51,0,0,1,.21,0,.2.2,0,0,1,.11,0l.11.05a.6.6,0,0,1,.31.56.36.36,0,0,1,0,.19,2.29,2.29,0,0,1-.1.23,2,2,0,0,1-.09.2l-.06.1-2.54,4.46-.56,1c-.09.16-.17.28-.23.37a1.41,1.41,0,0,1-.3.31.54.54,0,0,1-.29.15.56.56,0,0,1-.38-.09L55.21,14a.5.5,0,0,1-.1-.13.41.41,0,0,1,0-.27,1.23,1.23,0,0,1,.07-.32,2.08,2.08,0,0,1,.12-.3l.12-.21,1.34-2.37-.93-.54L55.15,11l-.08.14a2.26,2.26,0,0,1-.18.33l-.22.4-.21.35a1.07,1.07,0,0,1-.53.43.77.77,0,0,1-.64-.08.52.52,0,0,1-.24-.25A.7.7,0,0,1,53,12a1.05,1.05,0,0,1,.08-.34A1.8,1.8,0,0,1,53.22,11.38Zm4.46,3.72a.64.64,0,0,1-.31.11.57.57,0,0,1-.45-.18.47.47,0,0,1-.17-.25.67.67,0,0,1,0-.28,1,1,0,0,1,.07-.29c0-.09.08-.18.13-.27l3.19-5.62.14-.24a1.67,1.67,0,0,1,.17-.26,1.29,1.29,0,0,1,.19-.21.46.46,0,0,1,.2-.13.56.56,0,0,1,.29,0,1,1,0,0,1,.26.11.48.48,0,0,1,.22.25.72.72,0,0,1,0,.33,1.28,1.28,0,0,1-.14.47l-.22.44,0,0c-.26.5-.53,1-.81,1.45s-.54.94-.8,1.39l-1.3,2.29a5.3,5.3,0,0,1-.28.47A1.38,1.38,0,0,1,57.68,15.1Z"/><path class="cls-1" d="M61.36,16.52a1.28,1.28,0,0,1,.8-.36,2,2,0,0,1,.92.21,5.12,5.12,0,0,1,1,.65c.34.29.69.62,1,1s.66.72.95,1.07a4.33,4.33,0,0,1,.63,1,2,2,0,0,1,.18.92,1.34,1.34,0,0,1-.44.83,1.28,1.28,0,0,1-.84.39,1.85,1.85,0,0,1-.91-.21,4.76,4.76,0,0,1-1-.67c-.34-.3-.68-.62-1-1s-.67-.72-1-1.07a4.59,4.59,0,0,1-.63-1,1.83,1.83,0,0,1-.17-.92A1.3,1.3,0,0,1,61.36,16.52Zm4,4.23a.34.34,0,0,0,.08-.35,1.54,1.54,0,0,0-.24-.48,4,4,0,0,0-.43-.56c-.17-.2-.35-.39-.52-.57l-.54-.54a6.14,6.14,0,0,0-.53-.44,1.53,1.53,0,0,0-.45-.24.32.32,0,0,0-.42.4,1.72,1.72,0,0,0,.22.46c.12.17.25.35.42.55s.33.38.51.56l.54.56a4.47,4.47,0,0,0,.52.48,1.56,1.56,0,0,0,.46.26A.37.37,0,0,0,65.41,20.75Zm2-6.26-.36.33-.25.25-.13.13v.27c0,.13,0,.24,0,.33s0,.19,0,.29a1.82,1.82,0,0,1,0,.33v.2a1.21,1.21,0,0,0,0,.18c0,.19,0,.4,0,.61a1.36,1.36,0,0,1-.16.55.45.45,0,0,1-.15.16.34.34,0,0,1-.25,0,.78.78,0,0,1-.35-.21,1.28,1.28,0,0,1-.25-.4,2.81,2.81,0,0,1-.1-.39,4.32,4.32,0,0,1,0-.5c0-.17,0-.33,0-.5s0-.24,0-.39,0-.28,0-.41H64.1a2.45,2.45,0,0,1-.46,0,1.53,1.53,0,0,1-.83-.38l-.06-.07a.56.56,0,0,1,0-.08.5.5,0,0,1-.08-.37.42.42,0,0,1,.17-.23,1.23,1.23,0,0,1,.26-.12l.31,0h.76l.6,0,.57,0,.31,0,.75-.72-.49-.5a2.27,2.27,0,0,0-.22-.22,2.53,2.53,0,0,1-.22-.26,1,1,0,0,1-.15-.29.44.44,0,0,1,0-.32,1.58,1.58,0,0,1,.15-.24,1,1,0,0,1,.22-.19.3.3,0,0,1,.29,0,1.2,1.2,0,0,1,.27.16l.12.13.24.25.24.25a.85.85,0,0,0,.15.13l1.78,1.86a4.11,4.11,0,0,1,.47.57.82.82,0,0,1,.14.54.36.36,0,0,1-.08.18.77.77,0,0,1-.16.15.54.54,0,0,1-.2.1.34.34,0,0,1-.2,0l-.19-.1a.7.7,0,0,1-.18-.12,1.52,1.52,0,0,1-.22-.22L67.91,15ZM69.07,19l-.8.77-.21.15a.94.94,0,0,1-.23.1.57.57,0,0,1-.29,0,.72.72,0,0,1-.2-.09.53.53,0,0,1-.16-.13l-.12-.14a.43.43,0,0,1-.07-.16.49.49,0,0,1,0-.24,1.05,1.05,0,0,1,.06-.21,1.35,1.35,0,0,1,.13-.21l2.69-2.58a1,1,0,0,1,.19-.16.92.92,0,0,1,.3-.17.37.37,0,0,1,.25,0,.72.72,0,0,1,.27.15.92.92,0,0,1,.24.28.47.47,0,0,1,.09.3.48.48,0,0,1-.06.18l-.09.16a1.15,1.15,0,0,1-.14.19,1.45,1.45,0,0,1-.18.16l-.54.52-.07.07-.09.08-.1.1a.69.69,0,0,1,.11.12l.17.19c.06.06.11.13.16.19l.11.14a.64.64,0,0,1,.12.31.34.34,0,0,1-.07.22.73.73,0,0,1-.18.22.49.49,0,0,1-.24.14.5.5,0,0,1-.45-.11c-.13-.12-.28-.25-.43-.4Z"/><path class="cls-1" d="M71.26,28.89l0,.06a.1.1,0,0,1,0,.05,3.43,3.43,0,0,1,.12.33.92.92,0,0,1,0,.37.48.48,0,0,1-.25.33.91.91,0,0,1-.24.1.65.65,0,0,1-.23,0A.57.57,0,0,1,70.5,30a1.07,1.07,0,0,1-.18-.19l-.13-.17,0-.09L67,24.31a.24.24,0,0,0-.06-.09l-.06-.09c-.08-.13-.17-.27-.25-.42a.83.83,0,0,1-.09-.48.63.63,0,0,1,.29-.44.62.62,0,0,1,.34-.09.58.58,0,0,1,.35.1,1.5,1.5,0,0,1,.31.35c.08.13.16.27.25.4l0,.05c.34.53.68,1.09,1,1.68l1.3-.79c-.15-.24-.29-.45-.4-.64a5.09,5.09,0,0,1-.26-.47c-.07-.13-.15-.28-.23-.45a1.07,1.07,0,0,1-.09-.48.67.67,0,0,1,.14-.31,1.6,1.6,0,0,1,.25-.27,1.8,1.8,0,0,1,.24-.19l.13-.09,2-1.22a3.87,3.87,0,0,0,.37-.24,1.79,1.79,0,0,1,.39-.2.39.39,0,0,1,.24,0,.58.58,0,0,1,.21.1.81.81,0,0,1,.19.18l.17.2.1.19a.66.66,0,0,1,.06.2.44.44,0,0,1,0,.2.32.32,0,0,1-.1.18l-.18.11-.29.17-.29.18a.64.64,0,0,0-.16.13.14.14,0,0,0,0,.13.64.64,0,0,0,.06.14,1.86,1.86,0,0,0,.19.34,2.54,2.54,0,0,1,.22.34l1.29,2.15a.62.62,0,0,0,.11.17s.1,0,.18,0L75.1,25c.08,0,.16-.09.24-.15l.24-.13.15-.09a.71.71,0,0,1,.31-.09.43.43,0,0,1,.28.16,1.28,1.28,0,0,1,.27.4.61.61,0,0,1,.07.4.71.71,0,0,1-.27.39c-.13.09-.31.21-.56.36l-.56.33-.71.44-.7.42-.57.31a.76.76,0,0,1-1-.2,1.94,1.94,0,0,1-.21-.3l-.19-.32c-.12-.19-.25-.39-.36-.58l-.35-.58-1.3.82.27.44.25.41.25.4.25.44a3.62,3.62,0,0,0,.2.33A1.92,1.92,0,0,1,71.26,28.89Zm-.21-6a.25.25,0,0,0,0,.3,3.73,3.73,0,0,0,.16.35l.11.17.24.39.3.48q.15.25.3.48l.23.4a1.36,1.36,0,0,0,.11.19l.08.16a.6.6,0,0,1,.09.15.67.67,0,0,1,.06.12.41.41,0,0,0,.07.11.17.17,0,0,0,.1.07.19.19,0,0,0,.14,0l.12-.07L73.3,26l.19-.12.15-.13c.06-.06.09-.11.07-.16a.38.38,0,0,0-.09-.16.51.51,0,0,0-.09-.14,1.2,1.2,0,0,1-.08-.15L72.16,23l-.11-.19a.7.7,0,0,0-.13-.19.38.38,0,0,0-.16-.12.27.27,0,0,0-.21,0l-.1.06-.16.1-.15.09Z"/><path class="cls-1" d="M79.19,31.85a3.18,3.18,0,0,1,.17.77,1.88,1.88,0,0,1-.06.31.79.79,0,0,1-.17.29.72.72,0,0,1-.24.19.42.42,0,0,1-.29,0,.66.66,0,0,1-.53-.4L78,32.8c0-.09-.08-.19-.12-.31l-.11-.36a4.49,4.49,0,0,1-.13-.47l-.14,0-.27.09-.37.13-.4.13-1.09.38-.23.07-.12,0-.08,0-.11.18-.26.39c-.1.15-.21.32-.34.5l-.34.51-.29.42a2.83,2.83,0,0,1-.19.24c-.08.08-.16.17-.26.26a1.6,1.6,0,0,1-.31.22l-.13.07-.18.06a.65.65,0,0,1-.34-.08,1.07,1.07,0,0,1-.16-.14.5.5,0,0,1-.11-.19.72.72,0,0,1,0-.35,1.32,1.32,0,0,1,.08-.33,3.07,3.07,0,0,1,.17-.31,3.15,3.15,0,0,1,.22-.29l.22-.31q.14-.2.21-.33l.12-.16a.83.83,0,0,0,.12-.17l.18-.24.18-.26a5.88,5.88,0,0,0-.59-.2l-.56-.18-.56-.19L71,31.46a1.87,1.87,0,0,1-.31-.17.69.69,0,0,1-.21-.32s0,0,0-.08a.25.25,0,0,0,0-.12.63.63,0,0,1,.18-.41.59.59,0,0,1,.19-.13l.19-.07.22,0a.57.57,0,0,1,.18,0l.19,0,.2,0a.76.76,0,0,0,.2.06l.2.07a.23.23,0,0,1,.11,0l.1.07a.25.25,0,0,1,.12,0h.13l.2.06a1.09,1.09,0,0,1,.23.09c.17.05.35.1.53.17l.24.08a1.06,1.06,0,0,1,.25.09l.22.09.19.05,2.6-.87-.23-.68L76.71,29a.49.49,0,0,1-.06-.24.65.65,0,0,1,.26-.67A.59.59,0,0,1,77.5,28a1.39,1.39,0,0,1,.3.16.68.68,0,0,1,.2.24.28.28,0,0,1,.06.08l0,.12.05.15Zm-1.5,4.68.13.43a.42.42,0,0,1-.12.41.71.71,0,0,1-.34.23.55.55,0,0,1-.38,0,.75.75,0,0,1-.2-.11.86.86,0,0,1-.13-.14,2,2,0,0,1-.09-.2l-.1-.24-.14-.44,0,0-.6.2-.82.28c-.24.09-.49.18-.75.26l-.75.24-.17,0-.16,0-.15,0a.29.29,0,0,1-.16,0h-.15l-.14-.06a.6.6,0,0,1-.28-.37.57.57,0,0,1,0-.48.71.71,0,0,1,.29-.28l.37-.19a.75.75,0,0,0,.18-.08l.17-.07,6.16-2.05.15,0,.15,0,.28,0a.52.52,0,0,1,.25.08.7.7,0,0,1,.19.17,1,1,0,0,1,.13.32.51.51,0,0,1,0,.34.39.39,0,0,1-.26.29,5.84,5.84,0,0,1-.56.28l-.58.22-1.24.41-.12,0-.2.06Z"/><path class="cls-2" d="M41.31,22.58s21-.38,20.29,23.64,4.17,20.76-1,34-16.85,16.68-40,9.89"/><path class="cls-3" d="M54.35,58.45a32.48,32.48,0,0,1-1.11-7.28,21.76,21.76,0,0,1,.44-4.57c.12-.61.25-1.2.38-1.78.62-2.86,1.16-5.34.61-8A18.83,18.83,0,0,0,42.18,22.55a18.51,18.51,0,0,0-23.33,11.8C17.44,38.64,14.78,41,12,43.47l-1,.86a27.8,27.8,0,0,0-8.07,12,26.75,26.75,0,1,0,51.42,2.11Z"/><circle class="cls-4" cx="27.92" cy="65.51" r="16.28"/><path class="cls-5" d="M24.32,57.73a2.48,2.48,0,0,0-1-.1L22.92,59l-1.38-.36a2.39,2.39,0,0,0-.36.69,2.49,2.49,0,1,0,3.14-1.61Z"/><path class="cls-5" d="M35.05,61.17a2.48,2.48,0,0,0-1-.1l-.36,1.39-1.38-.36a2.33,2.33,0,0,0-.36.68,2.5,2.5,0,1,0,3.14-1.61Z"/><path class="cls-5" d="M31.84,70.66a1.19,1.19,0,0,0-1.05.16,5.3,5.3,0,0,1-8.11-2.61,1.15,1.15,0,0,0-.76-.73h0A1.21,1.21,0,0,0,20.4,69a7.7,7.7,0,0,0,11.79,3.78,1.21,1.21,0,0,0-.35-2.12Z"/></g></g></svg>