<svg xmlns="http://www.w3.org/2000/svg" viewBox="0 0 253.54 97.68"><defs><style>.cls-1{fill:#006934;}.cls-2{fill:#231815;}.cls-3{fill:#ebe282;}.cls-4{fill:#8a6139;}</style></defs><g id="레이어_2" data-name="레이어 2"><g id="레이어_1-2" data-name="레이어 1"><path class="cls-1" d="M128.71,80.81c-.06-.71-.09-1.42-.09-2.14V45.35a24.86,24.86,0,0,0-.17-2.94c-.06-.29-.14-.71-.23-1.25s-.28-.86-.57-1a1.69,1.69,0,0,0-1-.23,4.51,4.51,0,0,1-1.11,0,4.09,4.09,0,0,0-1.21,0,4,4,0,0,1-1.2,0h-4.19a25.52,25.52,0,0,1-3,0,25.52,25.52,0,0,0-3,0,6.35,6.35,0,0,1-1.29,0c-.38,0-.81,0-1.29,0-.65,0-1.34,0-2-.09a4,4,0,0,1-2-.71,4.48,4.48,0,0,1-1.69-2.23,8.58,8.58,0,0,1-.45-2.76,6.93,6.93,0,0,1,.72-3.39A3.07,3.07,0,0,1,106,29.23a3.54,3.54,0,0,1,1.3-.76c.56-.21,1-.37,1.47-.49a18.36,18.36,0,0,1,3.92-.49c1.36,0,2.7,0,4,0h15.5c.77.12,1.59.23,2.45.32a7.93,7.93,0,0,1,2.36.58,6,6,0,0,1,1.38.71,4.08,4.08,0,0,1,1.12,1.07,5.78,5.78,0,0,1,.93,2.49c.09.83.19,1.75.31,2.76.12,1.67.18,3.31.18,5V74.49c0,.06,0,.52.05,1.38s0,1.87,0,3v3.65c0,1.28,0,2.39-.09,3.34-.06.59-.15,1.22-.27,1.87a7.82,7.82,0,0,1-.58,1.87A5.33,5.33,0,0,1,139,91.24a5.47,5.47,0,0,1-1.87,1.16,8,8,0,0,1-3,.62,6,6,0,0,1-2.32-.49,2.94,2.94,0,0,1-1.6-1.47,14,14,0,0,1-1.43-6.33ZM166.4,51.94c.83.07,1.69.11,2.59.14s1.75.07,2.58.13a6,6,0,0,1,1,.09l1.07.18A5.51,5.51,0,0,1,176.51,54a4,4,0,0,1,1.12,3,22.43,22.43,0,0,1-.22,2.86A3.62,3.62,0,0,1,176,62.28,5,5,0,0,1,175,63a6.28,6.28,0,0,1-1.25.45,21,21,0,0,1-3.48.09,33.21,33.21,0,0,0-3.47,0c-.24,0-.36.15-.36.44V75.2q.18,4.64,0,9.09v1.24c0,.78,0,1.62,0,2.54s-.11,1.83-.22,2.72a11.66,11.66,0,0,1-.63,2.54,5.53,5.53,0,0,1-1.25,2,3.56,3.56,0,0,1-2.85,1.24l-.18-.09a5.31,5.31,0,0,1-3.43-1.24,7.62,7.62,0,0,1-2-2.85,13.3,13.3,0,0,1-.84-3.52c-.12-1.22-.18-2.31-.18-3.26V31.85a10.58,10.58,0,0,1,.18-1.78,13,13,0,0,1,.58-2.14,4.67,4.67,0,0,1,1.11-1.82,3.9,3.9,0,0,1,1.83-.94,8.66,8.66,0,0,1,2.18-.31A4.45,4.45,0,0,1,164,26.2a4.82,4.82,0,0,1,1.47,2.62c.14.93.28,1.89.4,2.9a4.76,4.76,0,0,1,.09,1.07c.12,1,.19,2.05.22,3.12s.07,2.14.13,3.21v1.15c0,.3,0,.76.05,1.39s0,1.55,0,2.8v7.48Z"/><path class="cls-1" d="M207.21,35.73c-.06,1.66-.09,3-.09,4s0,2,0,2.85.05,1.4.05,1.52c.29.29.83.78,1.6,1.47l2,1.73q.89.72,1.83,1.56c.62.57,1.26,1.18,1.91,1.83.42.41.81.81,1.16,1.2s.68.73,1,1q1.69,1.68,3.39,3.65a11.16,11.16,0,0,1,2.31,4,3.51,3.51,0,0,1,.09,1.78,2.65,2.65,0,0,1-1.16,1.69,6.17,6.17,0,0,1-3.2.89,9,9,0,0,1-3.75-.8,15.72,15.72,0,0,1-2.85-1.6,28.92,28.92,0,0,1-3.11-2.63c-1-.92-1.91-1.86-2.85-2.81-.66-.65-1.4-1.41-2.23-2.27a25.55,25.55,0,0,0-2.5-2.27l-2.4,2.4c-.42.42-.84.82-1.25,1.21a14.52,14.52,0,0,0-1.16,1.2c-.77.83-1.57,1.68-2.4,2.54a21.72,21.72,0,0,1-2.86,2.45A11.82,11.82,0,0,1,183.86,65h-.75a2.11,2.11,0,0,1-.76-.18,3.6,3.6,0,0,1-2.58-1.6,3,3,0,0,1-.41-2.23,7.45,7.45,0,0,1,.76-2.22,17.81,17.81,0,0,1,1.61-1.92c.59-.62,1.18-1.26,1.78-1.92s1.38-1.43,2.54-2.53,2.33-2.23,3.52-3.39,2.28-2.21,3.29-3.16,1.64-1.55,1.87-1.78V35.73H189c-.71,0-1.54,0-2.49,0a17.47,17.47,0,0,1-2.81-.13,7.82,7.82,0,0,1-2.54-.76A3.44,3.44,0,0,1,179.5,33a7.16,7.16,0,0,1-.58-2.23,6.57,6.57,0,0,1,.13-2.32,2.51,2.51,0,0,1,1.61-1.73,11.14,11.14,0,0,1,2.4-.67h7.13a7.6,7.6,0,0,0,1.6-.09h20.85a35.17,35.17,0,0,1,6,.44,6.58,6.58,0,0,1,4,2.23A2.83,2.83,0,0,1,223.2,30a6.17,6.17,0,0,1,0,1.82,5.78,5.78,0,0,1-.53,1.74,2.48,2.48,0,0,1-1.12,1.16c-.47.18-1,.37-1.69.58a9.77,9.77,0,0,1-1.69.4,23.84,23.84,0,0,1-2.54,0c-.86,0-1.71,0-2.54,0ZM185.11,82.6a9.75,9.75,0,0,1,2.36-6.69,16.17,16.17,0,0,1,6.37-4.23,37.91,37.91,0,0,1,9.45-2.18,100.64,100.64,0,0,1,11.58-.63q6.15,0,11.58.45a36.36,36.36,0,0,1,9.45,1.91,15.53,15.53,0,0,1,6.37,4.15,10.52,10.52,0,0,1,2.36,7.22,10.37,10.37,0,0,1-2.36,7.12,15.53,15.53,0,0,1-6.37,4.15,37.54,37.54,0,0,1-9.45,2q-5.43.48-11.58.49t-11.58-.49a37.45,37.45,0,0,1-9.45-2,15.53,15.53,0,0,1-6.37-4.15A10.37,10.37,0,0,1,185.11,82.6Zm47.49,0a2.68,2.68,0,0,0-1.6-2.41,13.49,13.49,0,0,0-4.15-1.34,45.23,45.23,0,0,0-5.7-.58q-3.17-.13-6.28-.13t-6.19.13a42.57,42.57,0,0,0-5.53.58,12.3,12.3,0,0,0-4,1.34,2.71,2.71,0,0,0-1.52,2.41,2.58,2.58,0,0,0,1.52,2.22,12.06,12.06,0,0,0,4,1.34,45.88,45.88,0,0,0,5.53.62q3.07.18,6.19.18h6.28a40.81,40.81,0,0,0,5.7-.36A11.1,11.1,0,0,0,231,85.31,3,3,0,0,0,232.6,82.6ZM243,51.5v9c-.06.65-.14,1.32-.26,2a6.48,6.48,0,0,1-.72,2,4.8,4.8,0,0,1-1.51,1.78,5.55,5.55,0,0,1-1.65.67,7.08,7.08,0,0,1-1.65.22,9.06,9.06,0,0,1-1.51-.13,3.37,3.37,0,0,1-1.34-.49A4.35,4.35,0,0,1,233,65.22a8.62,8.62,0,0,1-.85-1.56,8.36,8.36,0,0,1-.49-1.91V31.45a8.16,8.16,0,0,1,.09-2,8.09,8.09,0,0,1,.71-2.67A3.27,3.27,0,0,1,234,25.39a8.27,8.27,0,0,1,2.36-.71,8.61,8.61,0,0,1,3,.18A4.18,4.18,0,0,1,241.6,26a5,5,0,0,1,.76,1.38c.14.44.28.91.4,1.38a7.62,7.62,0,0,1,.31,1.87,14.22,14.22,0,0,1,0,2v7c0,.3,0,.61,0,.94a4.76,4.76,0,0,0,0,1.11l1.34,0,2,.08c.71,0,1.4.08,2.05.14s1.13.12,1.42.18a5.11,5.11,0,0,1,2.5,1,3,3,0,0,1,.89,1.65,8.56,8.56,0,0,1,.27,2.27,4.12,4.12,0,0,1-.54,2.18,4,4,0,0,1-3.2,2c-1.43.15-3,.25-4.73.31Z"/><path class="cls-1" d="M35.37,5.72a1.77,1.77,0,0,1,0-.23c0-.07,0-.14,0-.22l.21-3c0-.1,0-.2,0-.3s0-.2,0-.31,0-.08,0-.13,0-.1,0-.11a.2.2,0,0,0-.11,0l-.11,0a.56.56,0,0,0-.13,0h-.13l-.43,0a1.67,1.67,0,0,1-.32,0l-.32,0h-.27l-.22,0a.4.4,0,0,1-.2-.09.49.49,0,0,1-.16-.24,1,1,0,0,1,0-.3.69.69,0,0,1,.1-.35.32.32,0,0,1,.13-.15.6.6,0,0,1,.14-.07l.16,0a2.82,2.82,0,0,1,.42,0l.42,0,1.62.12L36.4.2a.62.62,0,0,1,.24.08l.14.08a.6.6,0,0,1,.11.12A.56.56,0,0,1,37,.75c0,.09,0,.19,0,.29s0,.35,0,.52,0,.35,0,.52L36.7,5.15v.14c0,.09,0,.2,0,.32s0,.25,0,.39,0,.25,0,.35,0,.12,0,.19a.62.62,0,0,1-.07.19.65.65,0,0,1-.13.16.52.52,0,0,1-.21.11.85.85,0,0,1-.32,0A.55.55,0,0,1,35.6,7a.26.26,0,0,1-.15-.16,1.55,1.55,0,0,1-.11-.68ZM39.55,3l.27,0,.27,0,.1,0,.11,0a.56.56,0,0,1,.29.17.45.45,0,0,1,.1.33,2,2,0,0,1,0,.29.37.37,0,0,1-.16.25.37.37,0,0,1-.12.07l-.13,0a2.56,2.56,0,0,1-.37,0l-.36,0s0,0,0,0a1.87,1.87,0,0,0,0,.27l0,.31c0,.11,0,.22,0,.32s0,.2,0,.28c0,.32,0,.64-.07,1V6.5c0,.08,0,.17,0,.27a2.74,2.74,0,0,1-.05.28,1.12,1.12,0,0,1-.08.26.62.62,0,0,1-.15.2.35.35,0,0,1-.31.11h0a.54.54,0,0,1-.35-.15.8.8,0,0,1-.19-.32,1.19,1.19,0,0,1-.06-.37c0-.13,0-.25,0-.35l.4-5.55V.78c0-.05,0-.11,0-.18a.81.81,0,0,1,.07-.22.7.7,0,0,1,.13-.19.4.4,0,0,1,.2-.08,1,1,0,0,1,.23,0,.49.49,0,0,1,.34.17.45.45,0,0,1,.13.28,3,3,0,0,1,0,.31.34.34,0,0,1,0,.11v.33c0,.12,0,.23,0,.34a.57.57,0,0,0,0,.12.58.58,0,0,0,0,.15c0,.06,0,.16,0,.29s0,.32,0,.57Z"/><path class="cls-1" d="M45.44,9.24a2.07,2.07,0,0,1-.37-.08L44.4,9l-.83-.26-.82-.26-.66-.2-.35-.11A2.13,2.13,0,0,1,41.37,8a.76.76,0,0,1-.31-.25A.5.5,0,0,1,41,7.49a.77.77,0,0,1,0-.26A1.38,1.38,0,0,1,41,7l0-.1.22-.72.08-.26c0-.09.05-.17.08-.24l0-.17,0-.08a.57.57,0,0,1,.11-.22.33.33,0,0,1,.23-.12H42l.15,0a.71.71,0,0,1,.29.14.29.29,0,0,1,.12.3l-.09.32c0,.09,0,.14,0,.15l.15,0,3.63,1.1.1-.32a.68.68,0,0,1,.16-.26.31.31,0,0,1,.26-.07,1.65,1.65,0,0,1,.32.08.49.49,0,0,1,.26.19.28.28,0,0,1,0,.22c0,.07,0,.14-.07.22-.09.27-.18.55-.25.84a5.18,5.18,0,0,1-.29.84.48.48,0,0,1-.11.2.78.78,0,0,1-.16.15.43.43,0,0,1-.24.1,1.23,1.23,0,0,1-.27,0,1.27,1.27,0,0,1-.28-.06Zm-.21-4.07a.31.31,0,0,1-.1.16.66.66,0,0,1-.17.12l-.2.07a.57.57,0,0,1-.18,0,1.5,1.5,0,0,1-.4-.11c-.11,0-.23-.09-.38-.13l-1-.31-1-.32a.42.42,0,0,1-.21-.16.5.5,0,0,1-.09-.24,1.22,1.22,0,0,1,0-.27c0-.09,0-.18.06-.25l.13-.43c0-.15.08-.31.13-.47s.09-.33.14-.49l.14-.42a1.83,1.83,0,0,0,.08-.25,1.43,1.43,0,0,1,.09-.27,2.72,2.72,0,0,1,.11-.25A1.1,1.1,0,0,1,42.57,1a.56.56,0,0,1,.24-.13.5.5,0,0,1,.27,0,.52.52,0,0,1,.23.1.42.42,0,0,1,.15.22,1.16,1.16,0,0,1,0,.61c-.06.21-.13.41-.19.6l1.16.35.11,0,.32.09A1.9,1.9,0,0,0,45,2.48L45,2.15a1.55,1.55,0,0,1,.15-.33.58.58,0,0,1,.27-.23.62.62,0,0,1,.3,0,.42.42,0,0,1,.24.15.4.4,0,0,1,.09.25,1.56,1.56,0,0,1,0,.31,1.59,1.59,0,0,1-.08.35ZM42.49,6.94l-.17,0a.32.32,0,0,0-.14,0,.17.17,0,0,0-.09.11.5.5,0,0,0,0,.14c0,.11,0,.18.09.2l.21.06.55.17.56.19.18,0,.36.1.45.14.46.13.36.11.18,0,.1,0,.12,0,.1,0a.15.15,0,0,0,.07-.1.73.73,0,0,1,0-.12.15.15,0,0,0,0-.13A.3.3,0,0,0,45.77,8l-.18,0-.23-.07-.55-.17-.7-.21-.69-.22L42.66,7Zm1.88-2.57a.43.43,0,0,0,0,0,.13.13,0,0,1,0-.08L44.49,4a1.32,1.32,0,0,0,0-.23l.05-.15-.91-.28-.26-.1-.23-.07-.21,0a1.71,1.71,0,0,0-.09.3c0,.1,0,.21-.07.31a.5.5,0,0,0,0,.14s0,0,.09.07l.2.07.2.06,1.07.32Zm2.12,1.08-.15-.06a.61.61,0,0,1-.18-.09L46,5.17A.3.3,0,0,1,45.92,5a.19.19,0,0,1,0-.11.78.78,0,0,1,0-.14.93.93,0,0,1,0-.13.39.39,0,0,1,0-.09.29.29,0,0,1,.15-.14.62.62,0,0,1,.23-.07l.14,0,.22,0,.26.08c0-.07,0-.13.05-.19L47.15,4,46.94,4l-.15-.06a.76.76,0,0,1-.18-.09l-.15-.12a.28.28,0,0,1-.09-.17.42.42,0,0,1,0-.27A.61.61,0,0,1,46.5,3a.64.64,0,0,1,.22-.14.5.5,0,0,1,.27,0l.09,0,.16.06.17,0h.08a1.07,1.07,0,0,0,.07-.19,1.42,1.42,0,0,1,.07-.22,1.14,1.14,0,0,1,.1-.19.45.45,0,0,1,.17-.13.4.4,0,0,1,.19,0l.2,0a.45.45,0,0,1,.34.27.45.45,0,0,1,0,.18.66.66,0,0,1,0,.24c0,.07,0,.15-.08.23l-.75,2.48a3.66,3.66,0,0,1-.13.37,1.43,1.43,0,0,1-.15.27.32.32,0,0,1-.18.15.47.47,0,0,1-.17,0l-.17,0a.54.54,0,0,1-.27-.19.49.49,0,0,1-.1-.22.85.85,0,0,1,0-.27c0-.1,0-.19.05-.26Z"/><path class="cls-1" d="M49.46,9.72l.13-.23c0-.07.09-.15.14-.25l.2-.35.29-.54c.13-.21.28-.48.45-.79l.64-1.12.15-.27a1.69,1.69,0,0,0,.13-.27.45.45,0,0,0,0-.23.35.35,0,0,0-.18-.15l-.63-.37-.6-.33a.66.66,0,0,1-.34-.39A.64.64,0,0,1,50,4a.61.61,0,0,1,.32-.3.59.59,0,0,1,.41,0,1.5,1.5,0,0,1,.34.12l.33.18,1.17.66.08,0,.09.06.21.15a.77.77,0,0,1,.18.18l.09.13a1,1,0,0,1,0,.16.42.42,0,0,1,0,.26l-.1.25-.24.46c-.09.15-.18.3-.26.46l-.34.59.8.46L54,6.21,54.11,6a1.43,1.43,0,0,1,.14-.2l.07-.06.07-.05a.56.56,0,0,1,.17-.07.3.3,0,0,1,.19,0l.09,0,.09,0a.5.5,0,0,1,.27.47.61.61,0,0,1,0,.17l-.09.19L55,6.68l0,.09-2.17,3.81-.48.85a3.39,3.39,0,0,1-.19.32,2.06,2.06,0,0,1-.26.27.53.53,0,0,1-.25.12.48.48,0,0,1-.32-.07L51.16,12a.31.31,0,0,1-.09-.11.34.34,0,0,1,0-.23,1.31,1.31,0,0,1,.06-.27,1.86,1.86,0,0,1,.1-.25l.1-.18,1.15-2-.8-.47-.54,1s0,0-.07.12l-.15.28c-.06.11-.13.22-.19.34l-.18.3a.9.9,0,0,1-.46.37.66.66,0,0,1-.54-.07.42.42,0,0,1-.2-.22.49.49,0,0,1,0-.27,1,1,0,0,1,.07-.29C49.38,9.88,49.42,9.8,49.46,9.72Zm3.8,3.17A.5.5,0,0,1,53,13a.55.55,0,0,1-.54-.36.65.65,0,0,1,0-.24,1.29,1.29,0,0,1,.06-.25,2.4,2.4,0,0,1,.11-.23l2.72-4.8a1.51,1.51,0,0,1,.12-.2,1.18,1.18,0,0,1,.14-.22l.17-.19a.33.33,0,0,1,.17-.1.53.53,0,0,1,.25,0l.22.1a.37.37,0,0,1,.18.21.55.55,0,0,1,0,.29,1,1,0,0,1-.11.39l-.19.38,0,0Q56,8.43,55.6,9l-.68,1.19-1.11,2-.24.4A1.3,1.3,0,0,1,53.26,12.89Z"/><path class="cls-1" d="M56.41,14.11a1,1,0,0,1,.68-.31,1.64,1.64,0,0,1,.78.18,3.85,3.85,0,0,1,.86.55c.29.25.59.53.89.84s.57.61.81.91a3.78,3.78,0,0,1,.54.86,1.6,1.6,0,0,1,.15.78,1.14,1.14,0,0,1-.38.71A1.1,1.1,0,0,1,60,19a1.55,1.55,0,0,1-.78-.19,3.86,3.86,0,0,1-.83-.57,11.37,11.37,0,0,1-.88-.84c-.3-.31-.57-.62-.81-.92a3.78,3.78,0,0,1-.54-.86,1.6,1.6,0,0,1-.15-.78A1.06,1.06,0,0,1,56.41,14.11Zm3.46,3.6a.25.25,0,0,0,.06-.29,1.14,1.14,0,0,0-.2-.42,4.42,4.42,0,0,0-.37-.47c-.14-.17-.29-.33-.44-.49l-.47-.46a3.46,3.46,0,0,0-.44-.37,1.25,1.25,0,0,0-.39-.21.31.31,0,0,0-.3.06.29.29,0,0,0,0,.28,1.24,1.24,0,0,0,.18.4c.1.14.22.3.36.46a5,5,0,0,0,.44.48l.45.48a4.08,4.08,0,0,0,.45.41,1.23,1.23,0,0,0,.4.22A.32.32,0,0,0,59.87,17.71Zm1.71-5.34c-.13.12-.24.21-.31.29l-.22.21a1,1,0,0,1-.11.11,2.3,2.3,0,0,0,0,.23,2.35,2.35,0,0,0,0,.28c0,.08,0,.16,0,.25v.45a.86.86,0,0,0,0,.15,4.67,4.67,0,0,1,0,.52,1.13,1.13,0,0,1-.14.47.34.34,0,0,1-.13.14.25.25,0,0,1-.21,0,.64.64,0,0,1-.3-.17.84.84,0,0,1-.21-.35,1.38,1.38,0,0,1-.09-.33,3.22,3.22,0,0,1,0-.43c0-.14,0-.28,0-.42s0-.21,0-.33a2.1,2.1,0,0,0,0-.36H58.75a1.87,1.87,0,0,1-.4,0,1.24,1.24,0,0,1-.7-.32l0-.06-.05-.07a.39.39,0,0,1-.06-.32.32.32,0,0,1,.14-.19.72.72,0,0,1,.22-.1l.26,0h.66l.51,0,.48,0L60,12l.64-.61L60.25,11l-.18-.18a2.2,2.2,0,0,1-.2-.23.68.68,0,0,1-.12-.24.36.36,0,0,1,0-.27,1.13,1.13,0,0,1,.12-.21.7.7,0,0,1,.19-.16.28.28,0,0,1,.25,0,1.16,1.16,0,0,1,.22.13l.11.11.21.22.2.21.13.12,1.52,1.58a3.77,3.77,0,0,1,.4.49.64.64,0,0,1,.12.46.34.34,0,0,1-.07.15.53.53,0,0,1-.13.13l-.18.09a.22.22,0,0,1-.16,0l-.17-.09a.49.49,0,0,1-.16-.1L62.19,13,62,12.82ZM63,16.24l-.68.65-.18.13a.72.72,0,0,1-.2.09.52.52,0,0,1-.25,0,.85.85,0,0,1-.17-.08.75.75,0,0,1-.13-.11.58.58,0,0,1-.1-.12.24.24,0,0,1-.06-.14.5.5,0,0,1,0-.21l.06-.17a.73.73,0,0,1,.11-.18l2.3-2.21a.79.79,0,0,1,.15-.13.74.74,0,0,1,.26-.14.34.34,0,0,1,.22,0,.76.76,0,0,1,.23.13.91.91,0,0,1,.2.24.48.48,0,0,1,.08.26.53.53,0,0,1,0,.15.57.57,0,0,1-.08.13.61.61,0,0,1-.12.16.67.67,0,0,1-.15.14l-.46.45-.07.06-.07.06-.08.09.09.1.15.17a1.83,1.83,0,0,1,.13.16.36.36,0,0,1,.09.12.56.56,0,0,1,.11.27.3.3,0,0,1-.06.18,1.25,1.25,0,0,1-.15.19.57.57,0,0,1-.21.12.41.41,0,0,1-.38-.1c-.12-.1-.24-.21-.37-.34Z"/><path class="cls-1" d="M64.86,24.66l0,.06,0,0a1.11,1.11,0,0,1,.1.29.6.6,0,0,1,0,.3.45.45,0,0,1-.22.29.76.76,0,0,1-.2.08.5.5,0,0,1-.2,0,.54.54,0,0,1-.2-.1,1.1,1.1,0,0,1-.15-.16.72.72,0,0,1-.11-.15l0-.08-2.72-4.49a.35.35,0,0,0,0-.08.56.56,0,0,1,0-.08q-.11-.17-.21-.36a.64.64,0,0,1-.08-.4.55.55,0,0,1,.25-.38.52.52,0,0,1,.29-.08.48.48,0,0,1,.29.09,1.06,1.06,0,0,1,.27.29c.06.12.14.23.21.35l0,0c.29.46.58.93.86,1.43l1.11-.67c-.13-.2-.24-.39-.34-.55a3.48,3.48,0,0,1-.22-.4l-.2-.38a.78.78,0,0,1-.07-.42.63.63,0,0,1,.11-.26l.21-.23.21-.16.11-.07,1.73-1,.31-.21a1.29,1.29,0,0,1,.33-.17.31.31,0,0,1,.21,0,.42.42,0,0,1,.18.08.85.85,0,0,1,.17.16l.14.17.08.16a.48.48,0,0,1,.05.17.48.48,0,0,1,0,.17.24.24,0,0,1-.09.15l-.15.1-.25.14-.25.16c-.07.05-.12.08-.13.11s0,.06,0,.11l0,.12a2,2,0,0,0,.17.29l.19.29,1.1,1.84a.56.56,0,0,0,.09.14.14.14,0,0,0,.15,0l.15-.08.21-.12.2-.12.13-.07a.51.51,0,0,1,.26-.08.32.32,0,0,1,.24.13,1.2,1.2,0,0,1,.23.34.45.45,0,0,1,.06.34.65.65,0,0,1-.22.34l-.48.31-.48.28-.61.37-.6.36-.49.27a.64.64,0,0,1-.86-.17,2,2,0,0,1-.18-.26c-.06-.1-.12-.19-.16-.27s-.22-.33-.32-.5L64.78,22l-1.12.69c.08.14.16.26.24.38l.21.35.21.34.21.38.18.28A1.35,1.35,0,0,1,64.86,24.66Zm-.18-5.14a.22.22,0,0,0,0,.26,2.59,2.59,0,0,0,.14.29.81.81,0,0,0,.09.15c.06.09.13.2.2.33l.26.41.25.41.2.34.09.16A1,1,0,0,0,66,22a.83.83,0,0,1,.07.13.31.31,0,0,1,0,.1l.06.1a.14.14,0,0,0,.09.05.14.14,0,0,0,.12,0l.1-.06.15-.09.17-.11.12-.1c.06-.06.08-.11.07-.15a.66.66,0,0,0-.08-.13,1.23,1.23,0,0,0-.08-.12c0-.06-.06-.1-.07-.13l-1.1-1.83-.1-.16a.62.62,0,0,0-.1-.16.33.33,0,0,0-.14-.1.24.24,0,0,0-.18,0L65,19.3l-.13.09-.13.08Z"/><path class="cls-1" d="M71.63,27.2a2.54,2.54,0,0,1,.14.65,1.17,1.17,0,0,1,0,.26.73.73,0,0,1-.15.25.65.65,0,0,1-.2.17.36.36,0,0,1-.25,0,.57.57,0,0,1-.45-.34c0-.07-.07-.14-.11-.22l-.1-.26c0-.08-.06-.18-.1-.31s-.07-.25-.11-.4l-.11,0-.24.08-.31.1-.34.12-.93.32-.2.06-.1,0-.07.05-.09.15c-.06.09-.14.2-.22.33l-.29.43c-.1.15-.2.3-.3.43l-.25.37-.15.2a2.44,2.44,0,0,1-.23.22.87.87,0,0,1-.26.18.41.41,0,0,1-.11.07l-.15.05a.57.57,0,0,1-.3-.07.55.55,0,0,1-.23-.28.77.77,0,0,1,0-.3.89.89,0,0,1,.07-.28c0-.09.09-.18.14-.27s.12-.17.19-.25l.19-.26.18-.28.1-.13a.56.56,0,0,0,.1-.15l.16-.21a1.64,1.64,0,0,0,.14-.22l-.49-.17-.48-.15-.48-.17-.53-.2a1.1,1.1,0,0,1-.26-.15.54.54,0,0,1-.18-.27.15.15,0,0,1,0-.07.44.44,0,0,0,0-.1.6.6,0,0,1,.15-.35.66.66,0,0,1,.16-.11l.17-.06h.18a.3.3,0,0,1,.16,0l.16,0,.17,0,.17.06.17.05a.14.14,0,0,1,.09,0l.1,0,.09,0a.23.23,0,0,0,.12,0l.17.06a.73.73,0,0,1,.19.07l.46.14.2.07a1,1,0,0,1,.21.08l.19.07.17,0,2.21-.74-.19-.59-.16-.46a1.33,1.33,0,0,1-.05-.21.55.55,0,0,1,.23-.57.49.49,0,0,1,.5-.11,1.17,1.17,0,0,1,.25.14.45.45,0,0,1,.17.21s0,0,0,.06l0,.11,0,.12Zm-1.28,4c0,.13.08.25.11.37a.38.38,0,0,1-.1.35.61.61,0,0,1-.29.19.5.5,0,0,1-.32,0L69.58,32a.6.6,0,0,1-.11-.12.89.89,0,0,1-.08-.17,2.2,2.2,0,0,1-.09-.21l-.12-.37v0l-.52.17-.7.24c-.2.08-.42.15-.64.22l-.64.2-.14,0-.14,0H66a.31.31,0,0,1-.12-.05.52.52,0,0,1-.24-.31.48.48,0,0,1,0-.41.56.56,0,0,1,.24-.24,3.18,3.18,0,0,1,.32-.16l.16-.07a.35.35,0,0,1,.14-.06L71.78,29l.14,0H72l.24,0a.39.39,0,0,1,.22.06.52.52,0,0,1,.15.15.72.72,0,0,1,.12.27.42.42,0,0,1,0,.29.33.33,0,0,1-.22.25l-.48.24-.5.18-1,.35-.1,0-.17.05Z"/><path class="cls-1" d="M23.42,96.91a5.18,5.18,0,0,0-5.16-5h-6a5.17,5.17,0,0,0-5.16,5Z"/><path class="cls-2" d="M24,97.52H6.48l0-.63a5.81,5.81,0,0,1,5.77-5.58h6A5.81,5.81,0,0,1,24,96.89ZM7.78,96.31h15a4.59,4.59,0,0,0-4.48-3.79h-6A4.61,4.61,0,0,0,7.78,96.31Z"/><path class="cls-2" d="M19,93.07a1.26,1.26,0,0,1-1.24-1,9.7,9.7,0,0,1,1.78-8.09c3.58-4.42,10.69-4.73,11-4.74a1.29,1.29,0,0,1,1.31,1.21,1.26,1.26,0,0,1-1.22,1.31c-.08,0-6.27.29-9.12,3.82a7.13,7.13,0,0,0-1.25,6,1.26,1.26,0,0,1-1,1.46A.78.78,0,0,1,19,93.07Z"/><path class="cls-2" d="M57.44,89.59A8.81,8.81,0,0,1,52.6,88.2c-4.79-3.07-5.89-10.1-5.93-10.4a1.26,1.26,0,0,1,1.06-1.43,1.27,1.27,0,0,1,1.44,1.06h0c0,.06,1,6.21,4.8,8.64a7.12,7.12,0,0,0,6.16.57,1.27,1.27,0,0,1,.71,2.43A12,12,0,0,1,57.44,89.59Z"/><path class="cls-1" d="M60.11,83.77A5.18,5.18,0,0,0,59.86,91l4,4.45a5.17,5.17,0,0,0,7.16.47Z"/><path class="cls-2" d="M67.71,97.68a5.73,5.73,0,0,1-4.28-1.88l-4-4.44a5.81,5.81,0,0,1,.28-8l.45-.44,11.77,13-.48.4A5.71,5.71,0,0,1,67.71,97.68Zm-7.6-13a4.58,4.58,0,0,0,.2,5.86l4,4.45a4.6,4.6,0,0,0,5.81.79Z"/><path class="cls-2" d="M13.92,59.91c-1.4,0-7.52-.23-11-4A9.65,9.65,0,0,1,.57,48,1.27,1.27,0,0,1,2,46.86a1.25,1.25,0,0,1,1.12,1.38,7.16,7.16,0,0,0,1.67,6c3.08,3.33,9.3,3.18,9.36,3.18h0a1.26,1.26,0,0,1,0,2.52Z"/><circle class="cls-1" cx="3.08" cy="47.31" r="2.66"/><path class="cls-2" d="M4.68,44.67a3.09,3.09,0,1,1-4.24,1A3.09,3.09,0,0,1,4.68,44.67ZM1.93,49.24a2.24,2.24,0,1,0-.77-3.08A2.26,2.26,0,0,0,1.93,49.24Z"/><path class="cls-1" d="M33.71,20.08S50.65,14.29,56.36,34s8.81,15.79,8.12,27.91-9.35,18-29.95,18.49"/><path class="cls-2" d="M34.53,81.75a1.36,1.36,0,0,1,0-2.71c19.4-.49,28-5.64,28.62-17.21.38-6.53-.36-8-2.13-11.72a88.35,88.35,0,0,1-5.93-15.74c-1.71-5.89-4.62-9.95-8.65-12-5.84-3.06-12.21-1-12.27-1a1.36,1.36,0,1,1-.87-2.57c.3-.1,7.48-2.48,14.37,1.1,4.73,2.46,8.1,7.08,10,13.73a86.05,86.05,0,0,0,5.76,15.31c1.88,3.88,2.82,5.83,2.4,13.06-.75,13.14-10.39,19.24-31.26,19.76Z"/><path class="cls-1" d="M85.94,61.17l-2.59,1A6.61,6.61,0,0,0,71,66.75l-2.59,1a1.68,1.68,0,0,0-.92,2.33L73.8,81.47a1.68,1.68,0,0,0,2.09.83l13.89-5.17a1.69,1.69,0,0,0,1-2L88.16,62.34A1.69,1.69,0,0,0,85.94,61.17ZM75.28,59.43a5.46,5.46,0,0,1,7,3.12l-10.21,3.8A5.45,5.45,0,0,1,75.28,59.43Z"/><path class="cls-2" d="M75.3,83a2.3,2.3,0,0,1-2-1.27L66.92,70.35a2.28,2.28,0,0,1,1.24-3.2l2-.77a7.22,7.22,0,0,1,13.46-5l2.06-.76a2.28,2.28,0,0,1,1.86.11,2.31,2.31,0,0,1,1.16,1.47L91.42,75A2.28,2.28,0,0,1,90,77.7L76.1,82.87A2.45,2.45,0,0,1,75.3,83Zm-3.57-15.9-3.15,1.17a1.1,1.1,0,0,0-.63.62,1.08,1.08,0,0,0,0,.88l6.34,11.4a1.08,1.08,0,0,0,1.35.55l13.89-5.17a1.07,1.07,0,0,0,.67-1.28L87.57,62.46A1.07,1.07,0,0,0,87,61.8a1,1,0,0,0-.88-.06Zm5.44-7.42A4.62,4.62,0,0,0,75.5,60a4.86,4.86,0,0,0-3,5.55l9-3.34A4.88,4.88,0,0,0,77.17,59.69Z"/><path class="cls-2" d="M75.78,58.22a1.27,1.27,0,0,1-1.13-.7A7.14,7.14,0,0,0,70,53.43c-4.4-1.12-9.54,2.37-9.59,2.41A1.26,1.26,0,1,1,59,53.76c.25-.17,6.12-4.18,11.64-2.79a9.74,9.74,0,0,1,6.28,5.41,1.27,1.27,0,0,1-.56,1.7A1.3,1.3,0,0,1,75.78,58.22Z"/><circle class="cls-1" cx="75.16" cy="58.31" r="2.66"/><path class="cls-2" d="M75.25,61.39a3.09,3.09,0,1,1,3-3.18A3.08,3.08,0,0,1,75.25,61.39Zm-.17-5.33a2.25,2.25,0,1,0,2.32,2.18A2.25,2.25,0,0,0,75.08,56.06Z"/><path class="cls-3" d="M53.66,45.83a27,27,0,0,1-2.79-5.63A17.63,17.63,0,0,1,50,36.37c-.06-.52-.11-1-.16-1.55-.24-2.49-.45-4.64-1.6-6.69a16.05,16.05,0,0,0-13.87-8.3A15.8,15.8,0,0,0,18.51,35.5c0,3.86-1.57,6.46-3.2,9.21l-.57,1a23.71,23.71,0,0,0-3.43,11.87A22.84,22.84,0,1,0,53.66,45.83Z"/><path class="cls-2" d="M34.15,81.89H34A24.22,24.22,0,0,1,10,57.53,24.92,24.92,0,0,1,13.57,45l.57-1c1.6-2.71,3-5,3-8.52a17.17,17.17,0,0,1,17.15-17h.11a17.47,17.47,0,0,1,15.05,9c1.29,2.31,1.52,4.7,1.76,7.23.05.51.1,1,.16,1.53a17.1,17.1,0,0,0,.77,3.55,26.7,26.7,0,0,0,2.67,5.36h0A24.18,24.18,0,0,1,34.15,81.89Zm.15-60.71A14.45,14.45,0,0,0,19.87,35.51c0,4.23-1.74,7.11-3.39,9.89l-.57,1a22.44,22.44,0,0,0-3.24,11.19A21.51,21.51,0,0,0,34,79.17h.14A21.47,21.47,0,0,0,52.5,46.54h0a29.05,29.05,0,0,1-2.92-5.9,19.25,19.25,0,0,1-.9-4.12c-.06-.53-.11-1.05-.16-1.57-.24-2.43-.42-4.35-1.43-6.16a14.76,14.76,0,0,0-12.7-7.61Z"/><circle class="cls-4" cx="34.03" cy="58.47" r="13.9"/><path class="cls-2" d="M34,73.73A15.26,15.26,0,1,1,49.29,58.47,15.28,15.28,0,0,1,34,73.73Zm0-27.8A12.54,12.54,0,1,0,46.57,58.47,12.55,12.55,0,0,0,34,45.93Z"/><path class="cls-2" d="M29.06,53.08a2.13,2.13,0,0,0-.87.19l.07,1.22-1.21.07a2,2,0,0,0-.11.65,2.13,2.13,0,1,0,2.12-2.13Z"/><path class="cls-2" d="M38.68,53.08a2.13,2.13,0,0,0-.87.19l.07,1.22-1.21.07a2,2,0,0,0-.12.65,2.13,2.13,0,1,0,2.13-2.13Z"/><path class="cls-2" d="M38.55,61.63a1,1,0,0,0-.81.4,4.51,4.51,0,0,1-7.27,0,1,1,0,0,0-.81-.4h0a1,1,0,0,0-.84,1.64,6.58,6.58,0,0,0,10.57,0,1,1,0,0,0-.84-1.64Z"/></g></g></svg>